<svg version="1.1" id="Layer_1" xmlns="http://www.w3.org/2000/svg" xmlns:xlink="http://www.w3.org/1999/xlink" x="0px" y="0px"
	 width="100%" viewBox="0 0 1024 1024" enable-background="new 0 0 1024 1024" xml:space="preserve">
<path fill="#FEFEFE" opacity="1.000000" stroke="none" 
	d="
M473.000000,1025.000000 
	C315.333344,1025.000000 158.166672,1025.000000 1.000000,1025.000000 
	C1.000000,683.666687 1.000000,342.333344 1.000000,1.000000 
	C342.333344,1.000000 683.666687,1.000000 1025.000000,1.000000 
	C1025.000000,342.333344 1025.000000,683.666687 1025.000000,1025.000000 
	C841.166687,1025.000000 657.333313,1025.000000 473.000000,1025.000000 
M643.905945,608.223999 
	C643.884583,607.479004 643.863281,606.734070 643.946411,605.501282 
	C643.946411,605.501282 643.860107,605.010010 643.969910,604.178528 
	C643.940186,602.782898 643.910461,601.387329 643.993225,599.276855 
	C643.645996,598.252380 643.298706,597.227905 642.060059,596.052429 
	C639.026306,596.091248 635.992554,596.130066 632.059021,596.025085 
	C623.076477,596.320923 614.093994,596.616760 604.506348,596.306946 
	C603.525513,596.186401 602.544800,595.960754 601.563904,595.960449 
	C561.309937,595.948059 521.055969,595.950012 480.802032,595.988525 
	C479.518341,595.989746 478.235077,596.393127 476.375916,596.635254 
	C475.994843,596.682861 475.613739,596.730469 474.562805,596.281433 
	C471.711731,596.223206 468.860657,596.164978 465.110657,596.048096 
	C462.410187,596.063232 459.709717,596.078369 456.501465,596.014160 
	C456.331848,596.038208 456.162231,596.062256 455.057892,596.027588 
	C445.384460,596.178711 435.711060,596.329773 425.100891,596.510376 
	C423.114014,596.533142 421.126923,596.585510 419.140259,596.573853 
	C404.749847,596.489380 390.359497,596.391968 375.157501,596.130188 
	C373.783783,596.185364 372.410065,596.240540 370.115814,596.083130 
	C364.737549,596.156189 359.359314,596.229187 353.060791,596.144592 
	C347.356537,596.225098 341.652252,596.305542 335.037201,596.194275 
	C322.678864,596.257019 310.320526,596.319763 297.049591,596.184753 
	C261.137421,596.184753 225.225235,596.184753 189.120041,596.184753 
	C189.120041,600.734863 189.120041,604.866150 189.466965,609.782410 
	C195.602234,609.889404 201.737686,610.097351 207.872757,610.087158 
	C251.570633,610.014709 295.268433,609.897583 339.889954,609.994019 
	C358.588776,609.958191 377.287628,609.922363 396.913879,610.038391 
	C411.611572,609.956787 426.309296,609.875183 441.929810,609.850220 
	C445.937531,609.752136 449.945221,609.654053 454.865540,609.797546 
	C463.233734,609.750854 471.601929,609.704224 480.885681,609.843872 
	C485.269226,609.827271 489.652802,609.810608 494.760345,609.933228 
	C495.491425,609.879639 496.222473,609.826050 497.870514,609.865417 
	C501.236389,609.817261 504.602264,609.769104 508.897003,609.900452 
	C546.937927,609.911072 584.978882,609.921692 623.951782,609.992615 
	C626.423218,610.003296 628.902466,610.144104 631.364258,609.995605 
	C635.500793,609.746216 639.626160,609.312744 643.905945,608.223999 
M433.178497,579.732788 
	C433.845032,580.095703 434.510498,580.773254 435.178223,580.775574 
	C452.463562,580.834595 469.749207,580.843628 487.034210,580.747070 
	C487.697266,580.743347 488.353973,579.606079 489.153534,578.069092 
	C489.162445,549.948120 489.160828,521.827209 489.207947,493.706299 
	C489.210632,492.113495 489.081421,490.121979 489.924072,488.999756 
	C493.152283,484.700500 496.752472,480.680573 500.482361,476.236511 
	C510.470215,490.886902 519.918030,505.154022 529.786987,519.123657 
	C543.959595,539.185242 558.439087,559.030029 573.081604,579.742126 
	C574.817749,580.036621 576.550964,580.563599 578.290527,580.585449 
	C585.934265,580.681396 593.579773,580.633240 601.224670,580.633972 
	C615.611145,580.635315 629.997620,580.634338 645.148560,580.634338 
	C643.932373,579.075195 643.169128,578.096680 642.187927,576.527588 
	C608.205322,531.388733 574.222717,486.249878 540.137451,440.974701 
	C574.204468,399.813416 608.066956,358.899200 642.682068,317.075623 
	C639.611816,317.075623 637.983643,317.075867 636.355408,317.075592 
	C614.032349,317.071503 591.708557,317.150696 569.386902,316.970428 
	C566.158813,316.944366 564.300171,318.060944 562.367004,320.441223 
	C539.505798,348.590485 516.547363,376.660919 493.595367,404.736389 
	C492.554077,406.010101 491.330414,407.134766 489.134399,409.437500 
	C489.134399,403.829376 489.141479,399.882996 489.133240,395.936646 
	C489.079803,370.290009 489.022980,344.643341 489.124756,318.502411 
	C489.064606,318.340271 489.004486,318.178162 488.898712,317.342041 
	C488.260284,317.309662 487.621826,317.277252 486.055145,317.124969 
	C468.503357,317.124969 450.951569,317.124969 433.173065,317.124969 
	C433.173065,319.648407 433.173035,321.463501 433.173096,323.278595 
	C433.175049,389.688995 433.164246,456.099365 433.187164,522.509766 
	C433.193665,541.315002 433.298706,560.120300 433.178497,579.732788 
M717.750000,729.312500 
	C722.360901,729.312500 726.971802,729.312500 731.851562,729.312500 
	C731.851562,706.068420 731.882751,683.344360 731.730774,660.621399 
	C731.725037,659.765076 729.942993,658.920593 728.063843,657.953857 
	C723.807861,657.953857 719.551941,657.953857 715.039185,657.953857 
	C715.039185,670.752930 715.162781,683.001648 714.962402,695.245056 
	C714.903748,698.830017 714.291077,702.506958 713.286865,705.953735 
	C711.378662,712.503540 706.572876,716.131531 699.930298,716.936768 
	C693.239746,717.747742 687.855896,715.503723 684.794739,708.180786 
	C684.479126,705.734802 683.907288,703.290466 683.890747,700.842468 
	C683.802795,687.741211 683.856873,674.639099 683.852356,661.537231 
	C683.851685,659.614685 684.421509,657.175964 680.062073,657.954956 
	C676.110474,657.954956 672.158875,657.954956 668.089050,657.954956 
	C668.089050,675.393127 667.470215,692.496460 668.334473,709.524475 
	C668.809143,718.875916 673.780090,726.577820 683.709167,729.487854 
	C696.561829,733.254822 707.457397,730.414673 715.596924,719.455200 
	C716.087158,722.831665 716.537964,725.936462 717.750000,729.312500 
M572.570801,696.110107 
	C572.643127,693.412598 572.715454,690.715027 573.064331,687.290222 
	C573.495667,685.517944 573.789490,683.698242 574.381531,681.981384 
	C577.282837,673.567993 584.650818,668.816711 592.817078,670.000305 
	C599.981445,671.038574 603.932251,676.736877 603.974854,686.434937 
	C604.031982,699.424805 603.949524,712.415222 603.953430,725.405396 
	C603.953796,726.659363 604.140747,727.913330 604.221802,728.926392 
	C609.737366,728.926392 614.812744,728.926392 620.044617,728.926392 
	C620.044617,712.120178 620.236389,695.649109 619.951050,679.186340 
	C619.835449,672.512451 617.116150,666.525208 612.028564,661.975281 
	C602.000549,653.006897 584.358521,654.168396 574.941467,664.235962 
	C573.897522,665.352112 572.504822,666.142029 571.571167,666.468872 
	C571.571228,665.566650 571.571289,664.664368 571.794067,663.242981 
	C571.699646,662.886108 571.605286,662.529297 571.703918,661.217896 
	C571.199219,660.216064 570.694458,659.214233 569.401245,657.980896 
	C565.930420,658.029236 562.459656,658.077576 558.249329,657.998413 
	C557.829956,658.665894 557.410583,659.333435 556.784851,660.918457 
	C556.821411,683.271851 556.858032,705.625305 556.818970,728.641968 
	C557.212646,728.761353 557.606323,728.880676 558.902527,729.226746 
	C562.934082,729.156189 566.965698,729.085632 571.514282,729.174988 
	C571.668335,729.081055 571.822388,728.987183 572.655762,728.719482 
	C572.623169,727.804749 572.590576,726.889954 572.734558,725.220093 
	C572.584717,718.492310 572.434937,711.764465 572.616699,704.189819 
	C572.513977,701.783325 572.411194,699.376770 572.570801,696.110107 
M508.951080,709.098816 
	C508.888489,701.726013 508.825897,694.353210 508.918304,686.139465 
	C508.872009,684.432800 508.825714,682.726196 508.955170,680.209229 
	C507.780060,669.328552 503.433655,660.236694 492.186768,657.298950 
	C478.637878,653.760010 466.652435,656.398682 459.085571,670.403320 
	C455.426178,660.950562 448.825623,656.389160 439.467346,655.983337 
	C430.567688,655.597412 423.130432,658.952026 416.711823,666.652344 
	C416.711823,663.015259 416.711823,660.609131 416.711823,658.130981 
	C411.567871,658.130981 406.773193,658.130981 401.428650,658.036072 
	C401.319153,658.350830 401.209625,658.665527 400.903137,659.901917 
	C400.903137,682.951843 400.903137,706.001831 400.903137,729.254272 
	C405.646393,729.254272 409.959229,729.374023 414.254272,729.151184 
	C415.093842,729.107666 415.864471,727.735474 416.838501,726.055969 
	C416.821228,713.043640 416.803955,700.031372 417.048553,686.301819 
	C417.140839,685.811462 417.202423,685.312988 417.329865,684.831970 
	C420.178711,674.078857 426.255493,668.916931 434.785828,669.994568 
	C442.618622,670.984131 446.783264,677.371521 446.800568,688.496643 
	C446.815063,697.813232 446.787384,707.129883 446.780670,716.446472 
	C446.777618,720.687317 446.780121,724.928223 446.780121,728.932251 
	C452.549133,728.932251 457.625458,728.932251 462.906677,728.932251 
	C462.906677,716.124695 462.903992,703.655212 462.907806,691.185730 
	C462.909698,685.032654 464.283936,679.328064 468.393036,674.524841 
	C472.318207,669.936584 477.536011,669.258667 482.956787,670.265930 
	C488.042786,671.210876 491.094208,674.745850 491.863678,679.811340 
	C492.458679,683.728333 492.685028,687.730835 492.718140,691.698242 
	C492.821777,704.111023 492.756226,716.525146 492.756226,729.254761 
	C497.850128,729.254761 502.318695,729.352173 506.773987,729.153076 
	C507.468231,729.122070 508.102020,727.738586 508.913788,726.138794 
	C508.864258,724.432678 508.814728,722.726562 508.959839,720.195801 
	C508.899628,718.790955 508.839386,717.386047 508.935486,715.140198 
	C508.876160,713.433777 508.816864,711.727295 508.951080,709.098816 
M793.494812,729.164856 
	C793.663757,729.112549 793.832703,729.060181 794.905701,729.227112 
	C798.937134,729.151489 802.968567,729.075867 807.673523,729.066345 
	C807.816284,728.702454 807.959045,728.338501 808.330261,727.064453 
	C808.275391,714.401245 808.220520,701.737976 808.500427,688.613770 
	C808.509521,688.051758 808.518555,687.489685 808.857483,686.200073 
	C808.981201,685.376587 809.027344,684.532471 809.240356,683.732788 
	C811.965820,673.502808 818.107300,668.756897 826.944397,670.021484 
	C834.047119,671.037842 837.081848,676.034729 837.103638,686.911621 
	C837.131592,700.872375 837.110474,714.833191 837.110474,729.029175 
	C842.661011,729.029175 847.753906,729.029175 853.000671,729.029175 
	C853.000671,711.676453 853.550720,694.526550 852.822205,677.431213 
	C852.265198,664.360718 842.130737,655.969604 829.112122,656.014099 
	C818.605164,656.050049 809.915039,659.482544 804.512573,669.649109 
	C800.593384,660.972229 794.198730,656.480530 785.259705,656.018250 
	C776.562012,655.568359 769.064941,658.489197 762.856079,665.705017 
	C762.674438,662.661743 762.541321,660.430054 762.410278,658.234497 
	C757.151306,658.234497 752.237549,658.234497 747.143921,658.234497 
	C747.143921,681.968567 747.143921,705.409485 747.143921,729.071167 
	C752.386963,729.071167 757.485962,729.071167 762.840393,729.071167 
	C762.918640,728.085327 763.035339,727.292297 763.036560,726.499146 
	C763.057373,713.499207 762.911987,700.496826 763.120972,687.500122 
	C763.289490,677.019104 770.390320,669.658630 779.559814,669.937378 
	C787.644836,670.183167 792.297363,676.759338 792.202393,687.559082 
	C792.091064,700.224731 792.073303,712.891357 792.095459,725.557434 
	C792.097412,726.689392 792.690491,727.820251 793.494812,729.164856 
M188.964981,321.903015 
	C188.959610,385.812408 188.937637,449.721832 188.958237,513.631226 
	C188.965042,534.761841 189.081635,555.892517 189.024124,577.907532 
	C188.494431,580.664307 189.814240,581.191833 192.330444,581.137573 
	C199.659622,580.979309 206.994415,581.080627 214.326996,581.080505 
	C226.443207,581.080322 238.559402,581.080505 251.225815,581.080505 
	C251.225815,553.763123 251.225815,526.895386 251.225815,499.339111 
	C278.257294,499.339111 304.740784,499.729614 331.206390,499.210571 
	C350.955688,498.823242 369.884399,494.399628 386.191376,482.465485 
	C407.346191,466.983429 417.990417,445.407227 421.009369,419.818848 
	C423.710785,396.922028 419.711182,375.160278 406.815796,355.913605 
	C388.627838,328.767609 361.369019,318.970703 329.215698,317.808258 
	C325.075378,317.598206 320.935944,317.229858 316.794586,317.206665 
	C302.160553,317.124725 287.525879,317.161224 272.891449,317.152222 
	C246.283463,317.135864 219.675385,317.091644 193.067764,317.183990 
	C191.746124,317.188568 190.428619,318.379364 189.016846,319.671021 
	C189.058502,320.106506 189.100174,320.542023 188.964981,321.903015 
M270.076569,695.320801 
	C262.279144,673.625366 254.481750,651.929871 246.593674,629.982117 
	C241.766983,629.982117 236.939590,630.180237 232.138184,629.912537 
	C228.936493,629.733887 227.648849,630.829956 226.559921,633.919434 
	C216.410599,662.715027 206.023590,691.426819 195.716675,720.166870 
	C194.686310,723.039978 193.730301,725.939758 192.593109,729.254700 
	C197.530136,729.254700 201.684296,729.066345 205.811096,729.321228 
	C208.544601,729.490051 209.526932,728.347168 210.314041,725.929321 
	C212.367661,719.621033 214.577194,713.350647 217.091675,707.215515 
	C217.645142,705.865051 219.700409,704.290588 221.097000,704.258606 
	C231.749985,704.015076 242.413727,704.016296 253.066559,704.265625 
	C254.480545,704.298767 256.573181,705.867615 257.119537,707.222168 
	C259.662445,713.526978 261.669128,720.046326 264.127930,726.388062 
	C264.592072,727.585144 266.189575,729.068237 267.347504,729.143982 
	C272.107819,729.455200 276.900330,729.274109 282.194885,729.274109 
	C278.084106,717.828308 274.178650,706.954346 270.076569,695.320801 
M368.072540,680.500000 
	C368.068817,686.493530 368.451538,692.521362 367.922974,698.468262 
	C367.580872,702.317139 366.497345,706.360657 364.696228,709.760925 
	C361.677185,715.460388 353.892059,718.226685 347.350647,716.775513 
	C341.458893,715.468445 337.893402,711.427307 336.815643,704.364563 
	C336.366852,701.423340 336.345856,698.399292 336.334015,695.412048 
	C336.284851,683.003235 336.313354,670.594116 336.313354,658.279541 
	C330.815430,658.279541 325.934753,658.279541 320.930817,658.279541 
	C320.930817,674.280945 320.884399,689.923340 320.943176,705.565369 
	C321.008911,723.066711 334.365540,733.767883 351.520477,730.553772 
	C359.002838,729.151855 364.867981,725.483887 370.166626,718.734070 
	C370.166626,722.985046 370.166626,725.924805 370.166626,729.052185 
	C375.192047,729.052185 379.929199,729.052185 384.787781,729.052185 
	C384.787781,705.307007 384.787781,681.772278 384.787781,658.265991 
	C379.076294,658.265991 373.688171,658.265991 368.070557,658.265991 
	C368.070557,665.561890 368.070557,672.531006 368.072540,680.500000 
M306.102112,674.500000 
	C306.102112,659.756409 306.102112,645.012817 306.102112,630.191772 
	C300.577423,630.191772 295.510681,630.191772 290.258850,630.191772 
	C290.258850,663.264160 290.258850,696.092041 290.258850,729.016235 
	C295.584167,729.016235 300.650177,729.016235 306.100983,729.016235 
	C306.100983,711.014648 306.100983,693.257324 306.102112,674.500000 
M540.933228,666.571655 
	C540.933228,663.764038 540.933228,660.956421 540.933228,658.052979 
	C535.220337,658.052979 529.825562,658.052979 524.523682,658.052979 
	C524.523682,681.896545 524.523682,705.411743 524.523682,729.049561 
	C530.104736,729.049561 535.375732,729.049561 540.934875,729.049561 
	C540.934875,708.408447 540.934875,687.981934 540.933228,666.571655 
M635.953369,687.500000 
	C635.953369,701.259827 635.953369,715.019653 635.953369,728.924622 
	C641.521057,728.924622 646.704468,728.924622 651.824341,728.924622 
	C651.824341,705.062073 651.824341,681.530151 651.824341,657.927307 
	C646.478699,657.927307 641.411804,657.927307 635.952942,657.927307 
	C635.952942,667.608093 635.952942,677.054077 635.953369,687.500000 
M644.417908,646.839417 
	C649.675903,646.225098 653.053223,643.416382 653.674866,638.100342 
	C654.133545,634.177429 652.466797,630.953369 648.850342,629.081604 
	C645.128479,627.155212 641.460938,627.541504 638.113770,630.007446 
	C634.957031,632.333069 634.265015,635.639526 634.926025,639.306274 
	C635.796265,644.133484 639.248474,646.049622 644.417908,646.839417 
M541.596558,634.291992 
	C538.824219,629.029663 535.427917,627.002563 530.516968,628.098694 
	C526.252441,629.050476 523.459534,631.663330 523.011780,636.235352 
	C522.438843,642.086365 526.460632,646.617126 532.321228,646.804443 
	C538.376892,646.997925 542.201294,642.274109 541.596558,634.291992 
z"/>
<path fill="#161616" opacity="1.000000" stroke="none" 
	d="
M329.987335,318.051300 
	C361.369019,318.970703 388.627838,328.767609 406.815796,355.913605 
	C419.711182,375.160278 423.710785,396.922028 421.009369,419.818848 
	C417.990417,445.407227 407.346191,466.983429 386.191376,482.465485 
	C369.884399,494.399628 350.955688,498.823242 331.206390,499.210571 
	C304.740784,499.729614 278.257294,499.339111 251.225815,499.339111 
	C251.225815,526.895386 251.225815,553.763123 251.225815,581.080505 
	C238.559402,581.080505 226.443207,581.080322 214.326996,581.080505 
	C206.994415,581.080627 199.659622,580.979309 192.330444,581.137573 
	C189.814240,581.191833 188.494431,580.664307 189.454483,577.333130 
	C190.228134,575.218567 190.846558,573.682129 190.867935,572.137512 
	C190.970276,564.742126 190.909653,557.344543 190.909317,549.947693 
	C190.908569,533.232483 190.909012,516.517273 190.909302,499.802063 
	C190.909637,480.755981 190.910583,461.709930 190.910767,442.663849 
	C190.910873,430.439392 190.909363,418.214935 190.909897,405.990479 
	C190.910583,390.439209 190.914261,374.887939 190.913467,359.336670 
	C190.912888,348.084198 190.974106,336.830872 190.825562,325.580322 
	C190.805206,324.038910 189.729141,322.511444 189.141846,320.977509 
	C189.100174,320.542023 189.058502,320.106506 189.517181,319.299683 
	C195.959579,319.267059 201.903198,319.900177 207.843353,319.869324 
	C215.118546,319.831543 222.393524,318.897064 229.663803,318.954803 
	C245.258560,319.078705 260.850403,319.876862 276.443085,319.866699 
	C293.533661,319.855560 310.624084,319.255524 327.713409,318.862152 
	C328.477203,318.844574 329.229614,318.332855 329.987335,318.051300 
M251.419937,448.021820 
	C252.310394,448.342712 253.200073,448.941223 254.091400,448.943695 
	C273.898895,448.998871 293.706726,449.020447 313.513733,448.911926 
	C314.731506,448.905273 315.943146,447.772614 317.888245,446.962006 
	C324.080872,445.938538 330.574493,445.770782 336.405579,443.719574 
	C349.966248,438.949310 357.840729,428.730560 359.658295,414.577850 
	C361.407227,400.959259 357.980774,388.758362 346.570435,379.950775 
	C337.869080,373.234253 327.452698,371.593689 316.930573,371.399689 
	C296.301392,371.019348 275.662445,371.163757 255.027496,371.117157 
	C253.762680,371.114288 252.497360,371.339020 251.184082,371.462372 
	C251.184082,396.933960 251.184082,422.046906 251.419937,448.021820 
z"/>
<path fill="#161616" opacity="1.000000" stroke="none" 
	d="
M572.787537,578.967407 
	C558.439087,559.030029 543.959595,539.185242 529.786987,519.123657 
	C519.918030,505.154022 510.470215,490.886902 500.482361,476.236511 
	C496.752472,480.680573 493.152283,484.700500 489.924072,488.999756 
	C489.081421,490.121979 489.210632,492.113495 489.207947,493.706299 
	C489.160828,521.827209 489.162445,549.948120 488.615509,578.574829 
	C472.327850,579.087524 456.578094,579.129089 440.828827,579.056458 
	C438.902374,579.047607 436.978790,578.426331 435.035461,577.614929 
	C435.011810,492.901581 435.042938,408.662079 434.900177,324.422852 
	C434.892578,319.935913 436.179596,318.828552 440.522858,318.895996 
	C456.667603,319.146667 472.818634,318.996399 488.967285,318.996704 
	C489.022980,344.643341 489.079803,370.290009 489.133240,395.936646 
	C489.141479,399.882996 489.134399,403.829376 489.134399,409.437500 
	C491.330414,407.134766 492.554077,406.010101 493.595367,404.736389 
	C516.547363,376.660919 539.505798,348.590485 562.367004,320.441223 
	C564.300171,318.060944 566.158813,316.944366 569.386902,316.970428 
	C591.708557,317.150696 614.032349,317.071503 636.355408,317.075592 
	C637.983643,317.075867 639.611816,317.075623 642.682068,317.075623 
	C608.066956,358.899200 574.204468,399.813416 540.137451,440.974701 
	C574.222717,486.249878 608.205322,531.388733 642.172974,577.214722 
	C641.433350,578.310181 640.708923,579.074890 639.984131,579.075195 
	C617.585266,579.085327 595.186401,579.020569 572.787537,578.967407 
M489.143188,409.079559 
	C489.505463,408.945190 489.867706,408.810852 490.229950,408.676453 
	C489.864227,408.564240 489.498474,408.452026 489.143188,409.079559 
z"/>
<path fill="#171717" opacity="1.000000" stroke="none" 
	d="
M807.000000,729.000244 
	C802.968567,729.075867 798.937134,729.151489 794.368042,728.949951 
	C793.556519,728.765686 793.282776,728.858643 793.008972,728.951660 
	C792.690491,727.820251 792.097412,726.689392 792.095459,725.557434 
	C792.073303,712.891357 792.091064,700.224731 792.202393,687.559082 
	C792.297363,676.759338 787.644836,670.183167 779.559814,669.937378 
	C770.390320,669.658630 763.289490,677.019104 763.120972,687.500122 
	C762.911987,700.496826 763.057373,713.499207 763.036560,726.499146 
	C763.035339,727.292297 762.918640,728.085327 762.840393,729.071167 
	C757.485962,729.071167 752.386963,729.071167 747.143921,729.071167 
	C747.143921,705.409485 747.143921,681.968567 747.143921,658.234497 
	C752.237549,658.234497 757.151306,658.234497 762.410278,658.234497 
	C762.541321,660.430054 762.674438,662.661743 762.856079,665.705017 
	C769.064941,658.489197 776.562012,655.568359 785.259705,656.018250 
	C794.198730,656.480530 800.593384,660.972229 804.512573,669.649109 
	C809.915039,659.482544 818.605164,656.050049 829.112122,656.014099 
	C842.130737,655.969604 852.265198,664.360718 852.822205,677.431213 
	C853.550720,694.526550 853.000671,711.676453 853.000671,729.029175 
	C847.753906,729.029175 842.661011,729.029175 837.110474,729.029175 
	C837.110474,714.833191 837.131592,700.872375 837.103638,686.911621 
	C837.081848,676.034729 834.047119,671.037842 826.944397,670.021484 
	C818.107300,668.756897 811.965820,673.502808 809.240356,683.732788 
	C809.027344,684.532471 808.981201,685.376587 808.505554,686.382263 
	C807.842346,686.353760 807.531006,686.143005 807.219727,685.932312 
	C807.535095,686.979797 807.850403,688.027283 808.165710,689.074768 
	C808.220520,701.737976 808.275391,714.401245 807.978149,727.627075 
	C807.417419,728.459839 807.208679,728.730042 807.000000,729.000244 
z"/>
<path fill="#171717" opacity="1.000000" stroke="none" 
	d="
M508.763306,686.980408 
	C508.825897,694.353210 508.888489,701.726013 508.512878,709.655090 
	C506.707428,712.330261 505.759552,714.397888 508.779144,715.981201 
	C508.839386,717.386047 508.899628,718.790955 508.520660,720.701721 
	C508.308899,723.131897 508.536316,725.056213 508.763733,726.980469 
	C508.102020,727.738586 507.468231,729.122070 506.773987,729.153076 
	C502.318695,729.352173 497.850128,729.254761 492.756226,729.254761 
	C492.756226,716.525146 492.821777,704.111023 492.718140,691.698242 
	C492.685028,687.730835 492.458679,683.728333 491.863678,679.811340 
	C491.094208,674.745850 488.042786,671.210876 482.956787,670.265930 
	C477.536011,669.258667 472.318207,669.936584 468.393036,674.524841 
	C464.283936,679.328064 462.909698,685.032654 462.907806,691.185730 
	C462.903992,703.655212 462.906677,716.124695 462.906677,728.932251 
	C457.625458,728.932251 452.549133,728.932251 446.780121,728.932251 
	C446.780121,724.928223 446.777618,720.687317 446.780670,716.446472 
	C446.787384,707.129883 446.815063,697.813232 446.800568,688.496643 
	C446.783264,677.371521 442.618622,670.984131 434.785828,669.994568 
	C426.255493,668.916931 420.178711,674.078857 417.329865,684.831970 
	C417.202423,685.312988 417.140839,685.811462 416.540527,686.774780 
	C415.692688,687.948669 415.060455,688.648010 415.056702,689.350830 
	C414.994354,701.009583 414.974884,712.669067 415.081299,724.327209 
	C415.089386,725.214966 416.114532,726.093323 416.666901,726.976074 
	C415.864471,727.735474 415.093842,729.107666 414.254272,729.151184 
	C409.959229,729.374023 405.646393,729.254272 400.903137,729.254272 
	C400.903137,706.001831 400.903137,682.951843 401.193420,659.352234 
	C401.721832,658.632629 401.886780,658.408752 401.978516,658.130981 
	C406.773193,658.130981 411.567871,658.130981 416.711823,658.130981 
	C416.711823,660.609131 416.711823,663.015259 416.711823,666.652344 
	C423.130432,658.952026 430.567688,655.597412 439.467346,655.983337 
	C448.825623,656.389160 455.426178,660.950562 459.085571,670.403320 
	C466.652435,656.398682 478.637878,653.760010 492.186768,657.298950 
	C503.433655,660.236694 507.780060,669.328552 508.523865,680.706665 
	C508.316132,683.129578 508.539703,685.054993 508.763306,686.980408 
z"/>
<path fill="#171717" opacity="1.000000" stroke="none" 
	d="
M270.174866,695.700562 
	C274.178650,706.954346 278.084106,717.828308 282.194885,729.274109 
	C276.900330,729.274109 272.107819,729.455200 267.347504,729.143982 
	C266.189575,729.068237 264.592072,727.585144 264.127930,726.388062 
	C261.669128,720.046326 259.662445,713.526978 257.119537,707.222168 
	C256.573181,705.867615 254.480545,704.298767 253.066559,704.265625 
	C242.413727,704.016296 231.749985,704.015076 221.097000,704.258606 
	C219.700409,704.290588 217.645142,705.865051 217.091675,707.215515 
	C214.577194,713.350647 212.367661,719.621033 210.314041,725.929321 
	C209.526932,728.347168 208.544601,729.490051 205.811096,729.321228 
	C201.684296,729.066345 197.530136,729.254700 192.593109,729.254700 
	C193.730301,725.939758 194.686310,723.039978 195.716675,720.166870 
	C206.023590,691.426819 216.410599,662.715027 226.559921,633.919434 
	C227.648849,630.829956 228.936493,629.733887 232.138184,629.912537 
	C236.939590,630.180237 241.766983,629.982117 246.593674,629.982117 
	C254.481750,651.929871 262.279144,673.625366 270.174866,695.700562 
M241.463150,689.184387 
	C244.596100,689.184387 247.729034,689.184387 251.422318,689.184387 
	C246.743057,675.010681 242.234985,661.355408 237.538284,647.128845 
	C234.924866,654.605042 232.508575,661.483032 230.116653,668.369507 
	C227.753128,675.174255 225.414246,681.987610 222.931046,689.184143 
	C229.178452,689.184143 234.827377,689.184143 241.463150,689.184387 
z"/>
<path fill="#161616" opacity="1.000000" stroke="none" 
	d="
M368.071533,680.000061 
	C368.070557,672.531006 368.070557,665.561890 368.070557,658.265991 
	C373.688171,658.265991 379.076294,658.265991 384.787781,658.265991 
	C384.787781,681.772278 384.787781,705.307007 384.787781,729.052185 
	C379.929199,729.052185 375.192047,729.052185 370.166626,729.052185 
	C370.166626,725.924805 370.166626,722.985046 370.166626,718.734070 
	C364.867981,725.483887 359.002838,729.151855 351.520477,730.553772 
	C334.365540,733.767883 321.008911,723.066711 320.943176,705.565369 
	C320.884399,689.923340 320.930817,674.280945 320.930817,658.279541 
	C325.934753,658.279541 330.815430,658.279541 336.313354,658.279541 
	C336.313354,670.594116 336.284851,683.003235 336.334015,695.412048 
	C336.345856,698.399292 336.366852,701.423340 336.815643,704.364563 
	C337.893402,711.427307 341.458893,715.468445 347.350647,716.775513 
	C353.892059,718.226685 361.677185,715.460388 364.696228,709.760925 
	C366.497345,706.360657 367.580872,702.317139 367.922974,698.468262 
	C368.451538,692.521362 368.068817,686.493530 368.071533,680.000061 
z"/>
<path fill="#161616" opacity="1.000000" stroke="none" 
	d="
M571.510864,662.172424 
	C571.605286,662.529297 571.699646,662.886108 571.387817,663.649902 
	C571.078979,665.065674 571.176392,666.074463 571.273865,667.083313 
	C572.504822,666.142029 573.897522,665.352112 574.941467,664.235962 
	C584.358521,654.168396 602.000549,653.006897 612.028564,661.975281 
	C617.116150,666.525208 619.835449,672.512451 619.951050,679.186340 
	C620.236389,695.649109 620.044617,712.120178 620.044617,728.926392 
	C614.812744,728.926392 609.737366,728.926392 604.221802,728.926392 
	C604.140747,727.913330 603.953796,726.659363 603.953430,725.405396 
	C603.949524,712.415222 604.031982,699.424805 603.974854,686.434937 
	C603.932251,676.736877 599.981445,671.038574 592.817078,670.000305 
	C584.650818,668.816711 577.282837,673.567993 574.381531,681.981384 
	C573.789490,683.698242 573.495667,685.517944 572.563599,687.756592 
	C572.144775,691.138733 572.226624,694.054504 572.308472,696.970276 
	C572.411194,699.376770 572.513977,701.783325 572.127808,704.788818 
	C571.476990,711.846619 571.289734,718.305115 571.214600,724.764954 
	C571.210022,725.163147 572.089722,725.571533 572.557983,725.975220 
	C572.590576,726.889954 572.623169,727.804749 572.207397,728.659058 
	C571.505066,728.737488 571.251160,728.876282 570.997253,729.015076 
	C566.965698,729.085632 562.934082,729.156189 558.332642,728.881104 
	C557.473450,728.349915 557.184082,728.164307 556.894653,727.978638 
	C556.858032,705.625305 556.821411,683.271851 557.200073,660.430542 
	C558.073120,659.337036 558.531006,658.731506 558.988831,658.125916 
	C562.459656,658.077576 565.930420,658.029236 569.712402,658.565552 
	C570.519348,660.157593 571.015137,661.165039 571.510864,662.172424 
M572.403015,683.487671 
	C572.403015,683.487671 572.522705,683.411804 572.403015,683.487671 
z"/>
<path fill="#171717" opacity="1.000000" stroke="none" 
	d="
M684.842834,709.024414 
	C687.855896,715.503723 693.239746,717.747742 699.930298,716.936768 
	C706.572876,716.131531 711.378662,712.503540 713.286865,705.953735 
	C714.291077,702.506958 714.903748,698.830017 714.962402,695.245056 
	C715.162781,683.001648 715.039185,670.752930 715.039185,657.953857 
	C719.551941,657.953857 723.807861,657.953857 728.555420,658.441223 
	C729.393982,661.203613 730.032593,663.477478 730.042053,665.753906 
	C730.123596,685.340332 730.054138,704.927368 730.133850,724.513794 
	C730.145813,727.457092 728.812744,728.121216 726.187378,728.166443 
	C723.117065,728.219360 720.054688,728.729553 716.988831,729.041382 
	C716.537964,725.936462 716.087158,722.831665 715.596924,719.455200 
	C707.457397,730.414673 696.561829,733.254822 683.709167,729.487854 
	C673.780090,726.577820 668.809143,718.875916 668.334473,709.524475 
	C667.470215,692.496460 668.089050,675.393127 668.089050,657.954956 
	C672.158875,657.954956 676.110474,657.954956 680.553040,658.447388 
	C681.397156,664.350281 681.967285,669.757202 682.056213,675.172058 
	C682.219238,685.096436 682.116455,695.025574 682.081116,704.952576 
	C682.073792,707.001709 681.794250,709.106079 684.842834,709.024414 
z"/>
<path fill="#161616" opacity="1.000000" stroke="none" 
	d="
M306.101562,675.000000 
	C306.100983,693.257324 306.100983,711.014648 306.100983,729.016235 
	C300.650177,729.016235 295.584167,729.016235 290.258850,729.016235 
	C290.258850,696.092041 290.258850,663.264160 290.258850,630.191772 
	C295.510681,630.191772 300.577423,630.191772 306.102112,630.191772 
	C306.102112,645.012817 306.102112,659.756409 306.101562,675.000000 
z"/>
<path fill="#171717" opacity="1.000000" stroke="none" 
	d="
M540.934082,667.063538 
	C540.934875,687.981934 540.934875,708.408447 540.934875,729.049561 
	C535.375732,729.049561 530.104736,729.049561 524.523682,729.049561 
	C524.523682,705.411743 524.523682,681.896545 524.523682,658.052979 
	C529.825562,658.052979 535.220337,658.052979 540.933228,658.052979 
	C540.933228,660.956421 540.933228,663.764038 540.934082,667.063538 
z"/>
<path fill="#161616" opacity="1.000000" stroke="none" 
	d="
M635.953125,687.000000 
	C635.952942,677.054077 635.952942,667.608093 635.952942,657.927307 
	C641.411804,657.927307 646.478699,657.927307 651.824341,657.927307 
	C651.824341,681.530151 651.824341,705.062073 651.824341,728.924622 
	C646.704468,728.924622 641.521057,728.924622 635.953369,728.924622 
	C635.953369,715.019653 635.953369,701.259827 635.953125,687.000000 
z"/>
<path fill="#C29D50" opacity="1.000000" stroke="none" 
	d="
M338.966248,609.794678 
	C295.268433,609.897583 251.570633,610.014709 207.872757,610.087158 
	C201.737686,610.097351 195.602234,609.889404 189.753540,609.395996 
	C214.801773,609.009644 239.563431,609.009644 264.967072,609.009644 
	C260.915924,606.793579 258.028870,605.075623 255.009720,603.634277 
	C253.875168,603.092529 252.439346,603.090759 251.131638,603.024353 
	C249.255280,602.929077 247.370483,603.000122 244.760345,603.000122 
	C246.701630,598.067932 250.021744,598.017090 253.304306,598.010620 
	C266.628723,597.984375 279.953705,598.046814 293.276978,597.919434 
	C294.843445,597.904480 296.400665,596.918396 297.962158,596.382568 
	C310.320526,596.319763 322.678864,596.257019 335.382721,596.630371 
	C334.067108,597.570068 332.405975,598.073669 330.432098,598.672119 
	C330.159180,599.814087 329.828491,601.197632 329.515167,602.508667 
	C328.774963,602.705078 328.311859,602.842346 327.842010,602.950134 
	C326.005432,603.371277 322.806702,601.976685 323.270844,605.497864 
	C323.405243,606.517517 326.213959,607.612793 327.928345,607.907532 
	C331.572998,608.534180 335.304108,608.658142 338.986694,609.189636 
	C338.973602,609.391052 338.966248,609.794678 338.966248,609.794678 
z"/>
<path fill="#EDD593" opacity="1.000000" stroke="none" 
	d="
M507.968140,609.720947 
	C504.602264,609.769104 501.236389,609.817261 497.218048,609.614990 
	C495.722504,609.507690 494.879425,609.650818 494.036346,609.793945 
	C489.652802,609.810608 485.269226,609.827271 480.435669,609.340454 
	C480.325806,605.222290 480.665955,601.607483 481.474060,597.992188 
	C506.678253,597.995300 531.415100,598.103149 556.150452,597.958984 
	C568.769165,597.885437 581.385193,597.359314 593.964722,597.387390 
	C593.507874,599.174622 592.691467,600.631409 592.759399,602.045593 
	C592.871094,604.367065 593.556519,606.660889 593.532349,608.974854 
	C582.355042,608.983337 571.645508,608.983337 560.935913,608.983337 
	C561.139038,608.354797 561.342102,607.726318 561.545166,607.097778 
	C560.386536,605.744019 559.294678,603.285095 558.058838,603.210449 
	C547.749756,602.588074 537.451538,600.135193 527.061035,602.873901 
	C524.636719,603.512939 521.894165,602.829590 519.340393,603.123108 
	C516.490234,603.450745 512.915283,603.147400 513.229797,607.001038 
	C511.180542,608.060364 509.574341,608.890625 507.968140,609.720947 
z"/>
<path fill="#BD9544" opacity="1.000000" stroke="none" 
	d="
M297.505859,596.283630 
	C296.400665,596.918396 294.843445,597.904480 293.276978,597.919434 
	C279.953705,598.046814 266.628723,597.984375 253.304306,598.010620 
	C250.021744,598.017090 246.701630,598.067932 244.760345,603.000122 
	C247.370483,603.000122 249.255280,602.929077 251.131638,603.024353 
	C252.439346,603.090759 253.875168,603.092529 255.009720,603.634277 
	C258.028870,605.075623 260.915924,606.793579 264.967072,609.009644 
	C239.563431,609.009644 214.801773,609.009644 189.580078,609.003540 
	C189.120041,604.866150 189.120041,600.734863 189.120041,596.184753 
	C225.225235,596.184753 261.137421,596.184753 297.505859,596.283630 
M225.516953,598.414246 
	C225.516953,598.414246 225.582062,598.523071 225.516953,598.414246 
z"/>
<path fill="#D3B46C" opacity="1.000000" stroke="none" 
	d="
M339.428101,609.894348 
	C338.966248,609.794678 338.973602,609.391052 339.455627,609.195557 
	C352.938904,609.000000 365.940216,609.000000 380.173370,609.000000 
	C377.357025,607.000488 375.634766,605.777771 373.877502,604.530151 
	C376.248077,603.034485 378.158112,601.829407 379.599365,600.920105 
	C377.918457,598.780212 376.943787,597.539490 375.969147,596.298706 
	C390.359497,596.391968 404.749847,596.489380 419.140259,596.573853 
	C421.126923,596.585510 423.114014,596.533142 425.545593,596.877258 
	C425.991943,597.496582 425.993530,597.749023 425.621979,598.073975 
	C423.836792,601.728210 421.103180,605.281799 424.548279,608.993774 
	C420.601532,609.018616 417.121887,608.932739 413.649536,609.055237 
	C407.759399,609.263123 401.873901,609.602417 395.986450,609.886475 
	C377.287628,609.922363 358.588776,609.958191 339.428101,609.894348 
M383.478760,608.078064 
	C383.236328,608.220459 382.993896,608.362915 382.751465,608.505371 
	C383.001495,608.636597 383.307312,608.922791 383.486755,608.858093 
	C383.691559,608.784424 383.783752,608.398193 383.478760,608.078064 
z"/>
<path fill="#050505" opacity="1.000000" stroke="none" 
	d="
M489.046021,318.749573 
	C472.818634,318.996399 456.667603,319.146667 440.522858,318.895996 
	C436.179596,318.828552 434.892578,319.935913 434.900177,324.422852 
	C435.042938,408.662079 435.011810,492.901581 434.898926,577.827637 
	C434.306671,578.651306 433.832611,578.788452 433.358551,578.925537 
	C433.298706,560.120300 433.193665,541.315002 433.187164,522.509766 
	C433.164246,456.099365 433.175049,389.688995 433.173096,323.278595 
	C433.173035,321.463501 433.173065,319.648407 433.173065,317.124969 
	C450.951569,317.124969 468.503357,317.124969 486.693481,317.400360 
	C487.869354,317.789185 488.406860,317.902588 488.944366,318.016022 
	C489.004486,318.178162 489.064606,318.340271 489.046021,318.749573 
z"/>
<path fill="#CCA95B" opacity="1.000000" stroke="none" 
	d="
M375.563324,596.214478 
	C376.943787,597.539490 377.918457,598.780212 379.599365,600.920105 
	C378.158112,601.829407 376.248077,603.034485 373.877502,604.530151 
	C375.634766,605.777771 377.357025,607.000488 380.173370,609.000000 
	C365.940216,609.000000 352.938904,609.000000 339.468689,608.994141 
	C335.304108,608.658142 331.572998,608.534180 327.928345,607.907532 
	C326.213959,607.612793 323.405243,606.517517 323.270844,605.497864 
	C322.806702,601.976685 326.005432,603.371277 327.842010,602.950134 
	C328.311859,602.842346 328.774963,602.705078 329.515167,602.508667 
	C329.828491,601.197632 330.159180,599.814087 330.432098,598.672119 
	C332.405975,598.073669 334.067108,597.570068 335.838135,596.726196 
	C341.652252,596.305542 347.356537,596.225098 353.643250,596.585205 
	C359.128479,597.674255 364.022491,598.425415 368.944794,598.841919 
	C369.565735,598.894409 370.335510,597.187439 371.036316,596.295654 
	C372.410065,596.240540 373.783783,596.185364 375.563324,596.214478 
z"/>
<path fill="#333333" opacity="1.000000" stroke="none" 
	d="
M189.053406,321.440247 
	C189.729141,322.511444 190.805206,324.038910 190.825562,325.580322 
	C190.974106,336.830872 190.912888,348.084198 190.913467,359.336670 
	C190.914261,374.887939 190.910583,390.439209 190.909897,405.990479 
	C190.909363,418.214935 190.910873,430.439392 190.910767,442.663849 
	C190.910583,461.709930 190.909637,480.755981 190.909302,499.802063 
	C190.909012,516.517273 190.908569,533.232483 190.909317,549.947693 
	C190.909653,557.344543 190.970276,564.742126 190.867935,572.137512 
	C190.846558,573.682129 190.228134,575.218567 189.516418,576.890930 
	C189.081635,555.892517 188.965042,534.761841 188.958237,513.631226 
	C188.937637,449.721832 188.959610,385.812408 189.053406,321.440247 
z"/>
<path fill="#EAD8A5" opacity="1.000000" stroke="none" 
	d="
M508.432556,609.810669 
	C509.574341,608.890625 511.180542,608.060364 513.229797,607.001038 
	C512.915283,603.147400 516.490234,603.450745 519.340393,603.123108 
	C521.894165,602.829590 524.636719,603.512939 527.061035,602.873901 
	C537.451538,600.135193 547.749756,602.588074 558.058838,603.210449 
	C559.294678,603.285095 560.386536,605.744019 561.545166,607.097778 
	C561.342102,607.726318 561.139038,608.354797 560.935913,608.983337 
	C571.645508,608.983337 582.355042,608.983337 594.000916,608.983276 
	C602.961365,608.984253 610.985596,608.985291 619.407227,608.993225 
	C620.865540,609.000854 621.926392,609.001648 622.994263,609.234985 
	C623.001282,609.467468 623.019775,609.932373 623.019775,609.932373 
	C584.978882,609.921692 546.937927,609.911072 508.432556,609.810669 
z"/>
<path fill="#DFC789" opacity="1.000000" stroke="none" 
	d="
M425.995117,598.001465 
	C425.993530,597.749023 425.991943,597.496582 426.013977,596.862488 
	C435.711060,596.329773 445.384460,596.178711 455.620056,596.208130 
	C456.457886,596.290283 456.733582,596.191895 457.009247,596.093506 
	C459.709717,596.078369 462.410187,596.063232 465.857849,596.345337 
	C469.480927,596.687805 472.356812,596.732910 475.232666,596.778076 
	C475.613739,596.730469 475.994843,596.682861 476.842163,596.971191 
	C478.540985,597.535583 479.773529,597.764160 481.006104,597.992676 
	C480.665955,601.607483 480.325806,605.222290 479.977905,609.247314 
	C471.601929,609.704224 463.233734,609.750854 454.419006,609.319946 
	C453.701477,607.235168 453.430450,605.628052 453.191376,604.210266 
	C454.857544,602.852112 456.380981,601.610352 459.011139,599.466370 
	C446.974243,598.932312 436.484680,598.466858 425.995117,598.001465 
z"/>
<path fill="#DFC789" opacity="1.000000" stroke="none" 
	d="
M619.009766,608.986328 
	C610.985596,608.985291 602.961365,608.984253 594.468628,608.974854 
	C593.556519,606.660889 592.871094,604.367065 592.759399,602.045593 
	C592.691467,600.631409 593.507874,599.174622 594.423706,597.378235 
	C598.317383,596.983826 601.714417,596.948181 605.111450,596.912598 
	C614.093994,596.616760 623.076477,596.320923 632.260803,596.342896 
	C629.392944,597.441284 626.239624,597.996948 623.288452,599.095642 
	C621.772644,599.659851 619.950867,600.956360 619.457886,602.344666 
	C618.743103,604.357788 619.106323,606.753723 619.009766,608.986328 
z"/>
<path fill="#DEC178" opacity="1.000000" stroke="none" 
	d="
M425.621979,598.073975 
	C436.484680,598.466858 446.974243,598.932312 459.011139,599.466370 
	C456.380981,601.610352 454.857544,602.852112 453.191376,604.210266 
	C453.430450,605.628052 453.701477,607.235168 453.962708,609.199097 
	C449.945221,609.654053 445.937531,609.752136 441.143921,609.576538 
	C435.244873,609.194153 430.131775,609.085449 425.018646,608.976807 
	C421.103180,605.281799 423.836792,601.728210 425.621979,598.073975 
z"/>
<path fill="#333333" opacity="1.000000" stroke="none" 
	d="
M329.601501,317.929779 
	C329.229614,318.332855 328.477203,318.844574 327.713409,318.862152 
	C310.624084,319.255524 293.533661,319.855560 276.443085,319.866699 
	C260.850403,319.876862 245.258560,319.078705 229.663803,318.954803 
	C222.393524,318.897064 215.118546,319.831543 207.843353,319.869324 
	C201.903198,319.900177 195.959579,319.267059 189.563354,318.973083 
	C190.428619,318.379364 191.746124,317.188568 193.067764,317.183990 
	C219.675385,317.091644 246.283463,317.135864 272.891449,317.152222 
	C287.525879,317.161224 302.160553,317.124725 316.794586,317.206665 
	C320.935944,317.229858 325.075378,317.598206 329.601501,317.929779 
z"/>
<path fill="#171717" opacity="1.000000" stroke="none" 
	d="
M644.027771,646.844604 
	C639.248474,646.049622 635.796265,644.133484 634.926025,639.306274 
	C634.265015,635.639526 634.957031,632.333069 638.113770,630.007446 
	C641.460938,627.541504 645.128479,627.155212 648.850342,629.081604 
	C652.466797,630.953369 654.133545,634.177429 653.674866,638.100342 
	C653.053223,643.416382 649.675903,646.225098 644.027771,646.844604 
z"/>
<path fill="#171717" opacity="1.000000" stroke="none" 
	d="
M541.717285,634.670654 
	C542.201294,642.274109 538.376892,646.997925 532.321228,646.804443 
	C526.460632,646.617126 522.438843,642.086365 523.011780,636.235352 
	C523.459534,631.663330 526.252441,629.050476 530.516968,628.098694 
	C535.427917,627.002563 538.824219,629.029663 541.717285,634.670654 
z"/>
<path fill="#DEC178" opacity="1.000000" stroke="none" 
	d="
M619.407227,608.993225 
	C619.106323,606.753723 618.743103,604.357788 619.457886,602.344666 
	C619.950867,600.956360 621.772644,599.659851 623.288452,599.095642 
	C626.239624,597.996948 629.392944,597.441284 632.710693,596.414795 
	C635.992554,596.130066 639.026306,596.091248 642.475708,596.397583 
	C641.333435,598.400635 642.043274,599.367859 643.880737,599.991699 
	C643.910461,601.387329 643.940186,602.782898 643.771179,604.685059 
	C643.520508,605.291870 643.398621,605.433838 643.429199,605.485046 
	C643.538940,605.669617 643.700134,605.823547 643.841919,605.989075 
	C643.863281,606.734070 643.884583,607.479004 643.386719,608.599670 
	C638.734619,608.979858 634.601807,608.983826 630.468933,608.989258 
	C627.975037,608.992493 625.481079,608.997986 622.987183,609.002441 
	C621.926392,609.001648 620.865540,609.000854 619.407227,608.993225 
z"/>
<path fill="#EAD8A5" opacity="1.000000" stroke="none" 
	d="
M604.808899,596.609741 
	C601.714417,596.948181 598.317383,596.983826 594.461426,597.028625 
	C581.385193,597.359314 568.769165,597.885437 556.150452,597.958984 
	C531.415100,598.103149 506.678253,597.995300 481.474060,597.992188 
	C479.773529,597.764160 478.540985,597.535583 477.130005,596.958069 
	C478.235077,596.393127 479.518341,595.989746 480.802032,595.988525 
	C521.055969,595.950012 561.309937,595.948059 601.563904,595.960449 
	C602.544800,595.960754 603.525513,596.186401 604.808899,596.609741 
z"/>
<path fill="#333333" opacity="1.000000" stroke="none" 
	d="
M717.369385,729.176941 
	C720.054688,728.729553 723.117065,728.219360 726.187378,728.166443 
	C728.812744,728.121216 730.145813,727.457092 730.133850,724.513794 
	C730.054138,704.927368 730.123596,685.340332 730.042053,665.753906 
	C730.032593,663.477478 729.393982,661.203613 729.017883,658.499573 
	C729.942993,658.920593 731.725037,659.765076 731.730774,660.621399 
	C731.882751,683.344360 731.851562,706.068420 731.851562,729.312500 
	C726.971802,729.312500 722.360901,729.312500 717.369385,729.176941 
z"/>
<path fill="#050505" opacity="1.000000" stroke="none" 
	d="
M572.934570,579.354736 
	C595.186401,579.020569 617.585266,579.085327 639.984131,579.075195 
	C640.708923,579.074890 641.433350,578.310181 642.281982,577.510010 
	C643.169128,578.096680 643.932373,579.075195 645.148560,580.634338 
	C629.997620,580.634338 615.611145,580.635315 601.224670,580.633972 
	C593.579773,580.633240 585.934265,580.681396 578.290527,580.585449 
	C576.550964,580.563599 574.817749,580.036621 572.934570,579.354736 
z"/>
<path fill="#333333" opacity="1.000000" stroke="none" 
	d="
M433.268524,579.329163 
	C433.832611,578.788452 434.306671,578.651306 434.917297,578.301514 
	C436.978790,578.426331 438.902374,579.047607 440.828827,579.056458 
	C456.578094,579.129089 472.327850,579.087524 488.545593,579.038818 
	C488.353973,579.606079 487.697266,580.743347 487.034210,580.747070 
	C469.749207,580.843628 452.463562,580.834595 435.178223,580.775574 
	C434.510498,580.773254 433.845032,580.095703 433.268524,579.329163 
z"/>
<path fill="#333333" opacity="1.000000" stroke="none" 
	d="
M684.818787,708.602600 
	C681.794250,709.106079 682.073792,707.001709 682.081116,704.952576 
	C682.116455,695.025574 682.219238,685.096436 682.056213,675.172058 
	C681.967285,669.757202 681.397156,664.350281 681.015503,658.511353 
	C684.421509,657.175964 683.851685,659.614685 683.852356,661.537231 
	C683.856873,674.639099 683.802795,687.741211 683.890747,700.842468 
	C683.907288,703.290466 684.479126,705.734802 684.818787,708.602600 
z"/>
<path fill="#050505" opacity="1.000000" stroke="none" 
	d="
M416.752686,726.515991 
	C416.114532,726.093323 415.089386,725.214966 415.081299,724.327209 
	C414.974884,712.669067 414.994354,701.009583 415.056702,689.350830 
	C415.060455,688.648010 415.692688,687.948669 416.409576,687.133362 
	C416.803955,700.031372 416.821228,713.043640 416.752686,726.515991 
z"/>
<path fill="#EAD8A5" opacity="1.000000" stroke="none" 
	d="
M424.548279,608.993774 
	C430.131775,609.085449 435.244873,609.194153 440.682495,609.548218 
	C426.309296,609.875183 411.611572,609.956787 396.450165,609.962402 
	C401.873901,609.602417 407.759399,609.263123 413.649536,609.055237 
	C417.121887,608.932739 420.601532,609.018616 424.548279,608.993774 
z"/>
<path fill="#050505" opacity="1.000000" stroke="none" 
	d="
M572.646240,725.597656 
	C572.089722,725.571533 571.210022,725.163147 571.214600,724.764954 
	C571.289734,718.305115 571.476990,711.846619 571.962036,705.212280 
	C572.434937,711.764465 572.584717,718.492310 572.646240,725.597656 
z"/>
<path fill="#D3B46C" opacity="1.000000" stroke="none" 
	d="
M370.576050,596.189392 
	C370.335510,597.187439 369.565735,598.894409 368.944794,598.841919 
	C364.022491,598.425415 359.128479,597.674255 354.103394,596.664062 
	C359.359314,596.229187 364.737549,596.156189 370.576050,596.189392 
z"/>
<path fill="#DFC789" opacity="1.000000" stroke="none" 
	d="
M622.994263,609.234985 
	C625.481079,608.997986 627.975037,608.992493 630.468933,608.989258 
	C634.601807,608.983826 638.734619,608.979858 643.311890,608.966064 
	C639.626160,609.312744 635.500793,609.746216 631.364258,609.995605 
	C628.902466,610.144104 626.423218,610.003296 623.485779,609.962524 
	C623.019775,609.932373 623.001282,609.467468 622.994263,609.234985 
z"/>
<path fill="#050505" opacity="1.000000" stroke="none" 
	d="
M572.439636,696.540161 
	C572.226624,694.054504 572.144775,691.138733 572.425293,688.120239 
	C572.715454,690.715027 572.643127,693.412598 572.439636,696.540161 
z"/>
<path fill="#050505" opacity="1.000000" stroke="none" 
	d="
M508.840790,686.559937 
	C508.539703,685.054993 508.316132,683.129578 508.435974,681.111816 
	C508.825714,682.726196 508.872009,684.432800 508.840790,686.559937 
z"/>
<path fill="#050505" opacity="1.000000" stroke="none" 
	d="
M508.838745,726.559631 
	C508.536316,725.056213 508.308899,723.131897 508.423340,721.114014 
	C508.814728,722.726562 508.864258,724.432678 508.838745,726.559631 
z"/>
<path fill="#050505" opacity="1.000000" stroke="none" 
	d="
M508.857300,715.560669 
	C505.759552,714.397888 506.707428,712.330261 508.416138,710.116089 
	C508.816864,711.727295 508.876160,713.433777 508.857300,715.560669 
z"/>
<path fill="#EAD8A5" opacity="1.000000" stroke="none" 
	d="
M474.897736,596.529785 
	C472.356812,596.732910 469.480927,596.687805 466.307312,596.374695 
	C468.860657,596.164978 471.711731,596.223206 474.897736,596.529785 
z"/>
<path fill="#DFC789" opacity="1.000000" stroke="none" 
	d="
M643.937012,599.634277 
	C642.043274,599.367859 641.333435,598.400635 642.921387,596.473083 
	C643.298706,597.227905 643.645996,598.252380 643.937012,599.634277 
z"/>
<path fill="#050505" opacity="1.000000" stroke="none" 
	d="
M808.333069,688.844238 
	C807.850403,688.027283 807.535095,686.979797 807.219727,685.932312 
	C807.531006,686.143005 807.842346,686.353760 808.340576,686.746094 
	C808.518555,687.489685 808.509521,688.051758 808.333069,688.844238 
z"/>
<path fill="#050505" opacity="1.000000" stroke="none" 
	d="
M571.422485,666.776123 
	C571.176392,666.074463 571.078979,665.065674 571.276428,663.909485 
	C571.571289,664.664368 571.571228,665.566650 571.422485,666.776123 
z"/>
<path fill="#050505" opacity="1.000000" stroke="none" 
	d="
M558.619080,658.062134 
	C558.531006,658.731506 558.073120,659.337036 557.303223,659.971741 
	C557.410583,659.333435 557.829956,658.665894 558.619080,658.062134 
z"/>
<path fill="#050505" opacity="1.000000" stroke="none" 
	d="
M571.607422,661.695190 
	C571.015137,661.165039 570.519348,660.157593 570.106689,658.681274 
	C570.694458,659.214233 571.199219,660.216064 571.607422,661.695190 
z"/>
<path fill="#EAD8A5" opacity="1.000000" stroke="none" 
	d="
M494.398346,609.863586 
	C494.879425,609.650818 495.722504,609.507690 496.759583,609.568542 
	C496.222473,609.826050 495.491425,609.879639 494.398346,609.863586 
z"/>
<path fill="#333333" opacity="1.000000" stroke="none" 
	d="
M488.921539,317.679016 
	C488.406860,317.902588 487.869354,317.789185 487.157623,317.460327 
	C487.621826,317.277252 488.260284,317.309662 488.921539,317.679016 
z"/>
<path fill="#050505" opacity="1.000000" stroke="none" 
	d="
M401.703583,658.083496 
	C401.886780,658.408752 401.721832,658.632629 401.291870,658.891418 
	C401.209625,658.665527 401.319153,658.350830 401.703583,658.083496 
z"/>
<path fill="#EAD8A5" opacity="1.000000" stroke="none" 
	d="
M456.755371,596.053833 
	C456.733582,596.191895 456.457886,596.290283 456.087402,596.237488 
	C456.162231,596.062256 456.331848,596.038208 456.755371,596.053833 
z"/>
<path fill="#DFC789" opacity="1.000000" stroke="none" 
	d="
M643.894165,605.745178 
	C643.700134,605.823547 643.538940,605.669617 643.429199,605.485046 
	C643.398621,605.433838 643.520508,605.291870 643.716309,605.100769 
	C643.860107,605.010010 643.946411,605.501282 643.894165,605.745178 
z"/>
<path fill="#050505" opacity="1.000000" stroke="none" 
	d="
M556.856812,728.310303 
	C557.184082,728.164307 557.473450,728.349915 557.881409,728.767822 
	C557.606323,728.880676 557.212646,728.761353 556.856812,728.310303 
z"/>
<path fill="#050505" opacity="1.000000" stroke="none" 
	d="
M571.255737,729.095032 
	C571.251160,728.876282 571.505066,728.737488 571.867676,728.745972 
	C571.822388,728.987183 571.668335,729.081055 571.255737,729.095032 
z"/>
<path fill="#050505" opacity="1.000000" stroke="none" 
	d="
M793.251892,729.058228 
	C793.282776,728.858643 793.556519,728.765686 793.916016,728.840332 
	C793.832703,729.060181 793.663757,729.112549 793.251892,729.058228 
z"/>
<path fill="#050505" opacity="1.000000" stroke="none" 
	d="
M807.336792,729.033325 
	C807.208679,728.730042 807.417419,728.459839 807.863953,728.082153 
	C807.959045,728.338501 807.816284,728.702454 807.336792,729.033325 
z"/>
<path fill="#FDFDFD" opacity="1.000000" stroke="none" 
	d="
M251.184082,447.159821 
	C251.184082,422.046906 251.184082,396.933960 251.184082,371.462372 
	C252.497360,371.339020 253.762680,371.114288 255.027496,371.117157 
	C275.662445,371.163757 296.301392,371.019348 316.930573,371.399689 
	C327.452698,371.593689 337.869080,373.234253 346.570435,379.950775 
	C357.980774,388.758362 361.407227,400.959259 359.658295,414.577850 
	C357.840729,428.730560 349.966248,438.949310 336.405579,443.719574 
	C330.574493,445.770782 324.080872,445.938538 317.053070,447.008392 
	C294.539948,447.089783 272.862030,447.124817 251.184082,447.159821 
z"/>
<path fill="#050505" opacity="1.000000" stroke="none" 
	d="
M251.302002,447.590820 
	C272.862030,447.124817 294.539948,447.089783 316.687744,447.109314 
	C315.943146,447.772614 314.731506,448.905273 313.513733,448.911926 
	C293.706726,449.020447 273.898895,448.998871 254.091400,448.943695 
	C253.200073,448.941223 252.310394,448.342712 251.302002,447.590820 
z"/>
<path fill="#FEFEFE" opacity="1.000000" stroke="none" 
	d="
M489.137970,408.709686 
	C489.498474,408.452026 489.864227,408.564240 490.229950,408.676453 
	C489.867706,408.810852 489.505463,408.945190 489.137970,408.709686 
z"/>
<path fill="#FDFDFD" opacity="1.000000" stroke="none" 
	d="
M240.969727,689.184265 
	C234.827377,689.184143 229.178452,689.184143 222.931046,689.184143 
	C225.414246,681.987610 227.753128,675.174255 230.116653,668.369507 
	C232.508575,661.483032 234.924866,654.605042 237.538284,647.128845 
	C242.234985,661.355408 246.743057,675.010681 251.422318,689.184387 
	C247.729034,689.184387 244.596100,689.184387 240.969727,689.184265 
z"/>
<path fill="#050505" opacity="1.000000" stroke="none" 
	d="
M572.462891,683.449707 
	C572.522705,683.411804 572.403015,683.487671 572.462891,683.449707 
z"/>
<path fill="#C29D50" opacity="1.000000" stroke="none" 
	d="
M225.549500,598.468628 
	C225.582062,598.523071 225.516953,598.414246 225.549500,598.468628 
z"/>
<path fill="#CCA95B" opacity="1.000000" stroke="none" 
	d="
M383.701782,608.112915 
	C383.783752,608.398193 383.691559,608.784424 383.486755,608.858093 
	C383.307312,608.922791 383.001495,608.636597 382.751465,608.505371 
	C382.993896,608.362915 383.236328,608.220459 383.701782,608.112915 
z"/>
</svg>